<svg xmlns="http://www.w3.org/2000/svg" width="17" height="16" viewBox="0 0 17 16"><g><g opacity=".75"><path fill="#fff" d="M16.602 3.028v9.942a3.135 3.135 0 0 1-3.131 3.131H3.529A3.135 3.135 0 0 1 .398 12.97V3.028a3.134 3.134 0 0 1 3.131-3.13h9.942a3.134 3.134 0 0 1 3.131 3.13zm-4.51-1.312l.01 2.69 2.71-.009v-2.69l-.355.001zM5.79 7.999A2.714 2.714 0 0 0 8.5 10.71 2.715 2.715 0 0 0 11.212 8c0-.602-.464-2.712-2.711-2.712S5.79 7.398 5.79 8zm9.038-1.803h-2.223c.209.513.327 1.215.327 1.803A4.436 4.436 0 0 1 8.5 12.43 4.436 4.436 0 0 1 4.07 8c0-.59.117-1.291.325-1.804h-2.25v6.577c0 .856.697 1.553 1.553 1.553h9.576c.856 0 1.553-.697 1.553-1.553z"/></g></g></svg>