<svg xmlns="http://www.w3.org/2000/svg" width="18" height="15" viewBox="0 0 18 15"><g><g opacity=".75"><path fill="#fff" d="M17.502 2.3a7.152 7.152 0 0 1-2.015.537A3.435 3.435 0 0 0 17.03.952a7.164 7.164 0 0 1-2.229.827 3.557 3.557 0 0 0-2.56-1.075c-1.939 0-3.51 1.524-3.51 3.405 0 .267.03.526.09.776A10.059 10.059 0 0 1 1.59 1.326a3.32 3.32 0 0 0-.476 1.713c0 1.182.62 2.225 1.562 2.835a3.563 3.563 0 0 1-1.59-.427v.045c0 1.649 1.21 3.025 2.815 3.338a3.588 3.588 0 0 1-1.585.059c.447 1.353 1.743 2.337 3.278 2.365a7.172 7.172 0 0 1-4.358 1.458c-.283 0-.563-.016-.837-.048a10.153 10.153 0 0 0 5.379 1.531c6.455 0 9.984-5.19 9.984-9.69 0-.148-.003-.295-.01-.441A7.003 7.003 0 0 0 17.502 2.3z"/></g></g></svg>