<svg xmlns="http://www.w3.org/2000/svg" width="26" height="26" viewBox="0 0 26 26"><g><g><g><path fill="#26a6d1" d="M13 .2C20.07.2 25.8 5.93 25.8 13c0 7.069-5.73 12.8-12.8 12.8S.2 20.069.2 13C.2 5.93 5.93.2 13 .2z"/></g><g><path fill="#fff" d="M21.002 8.823c-.56.241-1.16.404-1.792.477a3.051 3.051 0 0 0 1.372-1.675c-.603.347-1.27.599-1.98.735a3.159 3.159 0 0 0-2.277-.956c-1.723 0-3.12 1.355-3.12 3.028 0 .236.028.467.081.689a8.945 8.945 0 0 1-6.43-3.164 2.95 2.95 0 0 0-.422 1.522c0 1.05.55 1.978 1.388 2.52a3.186 3.186 0 0 1-1.413-.378v.038c0 1.467 1.075 2.69 2.502 2.969a3.216 3.216 0 0 1-1.409.051c.397 1.203 1.55 2.078 2.914 2.103a6.38 6.38 0 0 1-3.874 1.296c-.252 0-.5-.015-.744-.043 1.38.86 3.02 1.361 4.782 1.361 5.737 0 8.874-4.613 8.874-8.614 0-.13-.002-.263-.008-.392a6.232 6.232 0 0 0 1.556-1.567z"/></g></g></g></svg>