<svg xmlns="http://www.w3.org/2000/svg" width="26" height="26" viewBox="0 0 26 26"><g><g><g><path fill="#0e76a8" d="M13 .2C20.07.2 25.8 5.93 25.8 13c0 7.069-5.73 12.8-12.8 12.8S.2 20.069.2 13C.2 5.93 5.93.2 13 .2z"/></g><g><path fill="#fff" d="M7.412 9.797H9.81v7.99H7.412zm11.994 3.456v4.534h-2.398v-4.356c0-.894-.258-1.788-1.31-1.788-1.051 0-1.89.894-1.89 1.81v4.334h-2.406V9.773h2.406v1.111c.738-.938 1.779-1.362 2.942-1.362 1.164 0 2.656.58 2.656 3.73zM8.6 6.6a1.2 1.2 0 1 1 0 2.4 1.2 1.2 0 0 1 0-2.4z"/></g></g></g></svg>