<svg xmlns="http://www.w3.org/2000/svg" width="26" height="26" viewBox="0 0 26 26"><g><g><g><path fill="#3f729b" d="M13 .2C20.07.2 25.8 5.93 25.8 13c0 7.069-5.73 12.8-12.8 12.8S.2 20.069.2 13C.2 5.93 5.93.2 13 .2z"/></g><g><path fill="#fff" d="M20.202 8.581v8.837a2.786 2.786 0 0 1-2.784 2.783H8.582a2.786 2.786 0 0 1-2.784-2.783V8.581a2.787 2.787 0 0 1 2.784-2.783h8.836a2.787 2.787 0 0 1 2.784 2.783zm-4.008-1.166l.008 2.39 2.408-.007V7.407l-.315.001zM10.59 13A2.413 2.413 0 0 0 13 15.41 2.413 2.413 0 0 0 15.41 13c0-.535-.413-2.41-2.41-2.41s-2.41 1.875-2.41 2.41zm8.034-1.603h-1.976c.185.456.29 1.08.29 1.603A3.943 3.943 0 0 1 13 16.94 3.943 3.943 0 0 1 9.06 13c0-.523.105-1.147.29-1.603h-2v5.846c0 .762.62 1.38 1.38 1.38h8.512c.761 0 1.38-.618 1.38-1.38z"/></g></g></g></svg>