<svg xmlns="http://www.w3.org/2000/svg" width="26" height="26" viewBox="0 0 26 26"><g><g><g><path fill="#86c9ef" d="M13 .2C20.07.2 25.8 5.93 25.8 13c0 7.069-5.73 12.8-12.8 12.8S.2 20.069.2 13C.2 5.93 5.93.2 13 .2z"/></g><g><path fill="#fff" d="M5.8 10.6c1.197-.956 2.899-3.054 4.226-3.054 1.326 0 1.651 1.565 1.832 2.986.182 1.42.704 4.527 1.404 4.527.703 0 2.302-2.748 2.21-3.81-.09-1.061-1.247-.902-1.884-.597.585-2.124 1.937-3.252 3.666-3.252 1.73 0 2.146 1.221 2.146 2.72 0 2.284-4.629 9.28-7.424 9.28-1.73 0-2.158-2.55-2.509-3.81-.352-1.261-1.04-4.567-1.847-4.779-.313-.053-1.196.65-1.196.65z"/></g></g></g></svg>